<svg width="1200" height="1200" viewBox="0 0 512 512" fill="none" xmlns="http://www.w3.org/2000/svg" xmlns:xlink="http://www.w3.org/1999/xlink" class="h-full w-full" id="iconWithBackground"><rect id="r4" width="512" height="512" x="0" y="0" rx="80" fill="url(#linearGradient-iconWithBackground)" stroke="#000000" stroke-width="0" stroke-opacity="100%" paint-order="stroke"/><defs><linearGradient id="linearGradient-iconWithBackground" gradientUnits="userSpaceOnUse" gradientTransform="rotate(0)" style="transform-origin: center center 0px;"><stop stop-color="#9a031e"/><stop offset="1" stop-color="#5f0f40"/></linearGradient><radialGradient id="glare" cx="0" cy="0" r="1" gradientUnits="userSpaceOnUse" gradientTransform="translate(256) rotate(90) scale(512)"><stop stop-color="white"/><stop offset="1" stop-color="white" stop-opacity="0"/></radialGradient><clipPath id="clip"><use xlink:href="#r4"/></clipPath></defs><svg xmlns="http://www.w3.org/2000/svg" xmlns:xlink="http://www.w3.org/1999/xlink" aria-hidden="true" role="img" x="86" y="86" class="iconify iconify--cib" style="color: rgb(230, 230, 230);" width="340" height="340" viewBox="0 0 32 32"><path fill="currentColor" d="M28 0H4C1.803 0 0 1.803 0 4v5.145l5.464 3.172c.411.24.927.235 1.339 0c.348-.197 10.692-6.145 10.848-6.235c.371-.213.771-.14.995-.009c.219.124.813.463 1.12.635c.313.183.297.672.021.833L6.839 14.994c-.464.265-.921.271-1.401 0a860.793 860.793 0 0 1-5.437-3.151v2.692l5.464 3.172c.411.24.927.24 1.339 0c.348-.192 10.692-6.145 10.848-6.235c.371-.213.771-.14.995-.009c.219.129.813.463 1.12.64c.313.177.297.667.021.828S7.403 20.056 6.84 20.384c-.464.265-.921.271-1.401 0a860.793 860.793 0 0 1-5.437-3.151v2.692l5.464 3.172c.411.245.927.24 1.339 0c.348-.192 10.692-6.14 10.848-6.235c.371-.213.771-.14.995-.009c.219.129.813.463 1.12.64c.313.177.297.667.021.828L6.841 25.774c-.464.265-.921.271-1.401.005c-.801-.459-4.109-2.38-5.437-3.156v5.375c0 2.197 1.803 4 4 4h24c2.197 0 4-1.803 4-4v-24c0-2.197-1.803-4-4-4z"/></svg></svg>